<svg xmlns="http://www.w3.org/2000/svg" viewBox="0 0 148.95 151.54"><path d="M118.94,55.37a1.24,1.24,0,0,0,1.24-1.3C119,36,111,22,101.31,22S83.66,36,82.43,54.07a1.24,1.24,0,0,0,1.24,1.3Z" transform="translate(-26.83 -21.96)" style="fill:#fafafa"/><path d="M120.78,162.89V62.47a2,2,0,0,0-2-2H83.87a2.05,2.05,0,0,0-2,2V162.89Zm-5-98.2a.51.51,0,0,1,.5-.5h.26a.5.5,0,0,1,.5.5v43a.5.5,0,0,1-.5.5h-.26a.51.51,0,0,1-.5-.5Z" transform="translate(-26.83 -21.96)" style="fill:#fafafa"/><path d="M81.83,165.39v3.78a4.33,4.33,0,0,0,4.33,4.33h30.29a4.33,4.33,0,0,0,4.33-4.33v-3.78Z" transform="translate(-26.83 -21.96)" style="fill:#fafafa"/><path d="M63.94,55.37a1.24,1.24,0,0,0,1.24-1.3C64,36,56,22,46.31,22S28.66,36,27.43,54.07a1.24,1.24,0,0,0,1.24,1.3Z" transform="translate(-26.83 -21.96)" style="fill:#fafafa"/><path d="M65.78,162.89V62.47a2,2,0,0,0-2-2H28.87a2.05,2.05,0,0,0-2,2V162.89Zm-5-98.2a.51.51,0,0,1,.5-.5h.26a.5.5,0,0,1,.5.5v43a.5.5,0,0,1-.5.5h-.26a.51.51,0,0,1-.5-.5Z" transform="translate(-26.83 -21.96)" style="fill:#fafafa"/><path d="M26.83,165.39v3.78a4.33,4.33,0,0,0,4.33,4.33H61.45a4.33,4.33,0,0,0,4.33-4.33v-3.78Z" transform="translate(-26.83 -21.96)" style="fill:#fafafa"/><path d="M173.94,55.37a1.24,1.24,0,0,0,1.24-1.3C174,36,166,22,156.31,22s-17.65,14-18.88,32.11a1.24,1.24,0,0,0,1.24,1.3Z" transform="translate(-26.83 -21.96)" style="fill:#fafafa"/><path d="M175.78,162.89V62.47a2,2,0,0,0-2-2H138.87a2.05,2.05,0,0,0-2,2V162.89Zm-5-98.2a.51.51,0,0,1,.5-.5h.26a.5.5,0,0,1,.5.5v43a.5.5,0,0,1-.5.5h-.26a.51.51,0,0,1-.5-.5Z" transform="translate(-26.83 -21.96)" style="fill:#fafafa"/><path d="M136.83,165.39v3.78a4.33,4.33,0,0,0,4.33,4.33h30.29a4.33,4.33,0,0,0,4.33-4.33v-3.78Z" transform="translate(-26.83 -21.96)" style="fill:#fafafa"/></svg>