<svg xmlns="http://www.w3.org/2000/svg" viewBox="0 0 152.75 147"><path d="M60.91,59.17a1.2,1.2,0,0,0,1.2-1.27C60.93,40.18,53.23,26.5,43.9,26.5s-17,13.68-18.22,31.4a1.21,1.21,0,0,0,1.2,1.27Z" transform="translate(-23.13 -26.5)"/><path d="M24.42,62.47v106.7a4.33,4.33,0,0,0,4.33,4.33H59a4.33,4.33,0,0,0,4.33-4.33V62.47a2,2,0,0,0-2-2H26.47A2.05,2.05,0,0,0,24.42,62.47Z" transform="translate(-23.13 -26.5)"/><rect x="58.35" y="64.19" width="1.26" height="43.97" rx="0.5" transform="translate(94.82 145.86) rotate(180)" style="fill:#fff"/><path d="M116.52,59.17a1.21,1.21,0,0,0,1.2-1.27c-1.19-17.72-8.89-31.4-18.22-31.4s-17,13.68-18.22,31.4a1.21,1.21,0,0,0,1.2,1.27Z" transform="translate(-23.13 -26.5)"/><path d="M80,62.47v106.7a4.32,4.32,0,0,0,4.32,4.33h30.3a4.32,4.32,0,0,0,4.32-4.33V62.47a2,2,0,0,0-2-2H82.07A2,2,0,0,0,80,62.47Z" transform="translate(-23.13 -26.5)"/><rect x="113.95" y="64.19" width="1.26" height="43.97" rx="0.5" transform="translate(206.03 145.86) rotate(180)" style="fill:#fff"/><path d="M172.12,59.17a1.21,1.21,0,0,0,1.2-1.27c-1.19-17.72-8.89-31.4-18.22-31.4s-17,13.68-18.21,31.4a1.2,1.2,0,0,0,1.2,1.27Z" transform="translate(-23.13 -26.5)"/><path d="M135.63,62.47v106.7A4.33,4.33,0,0,0,140,173.5h30.29a4.33,4.33,0,0,0,4.33-4.33V62.47a2.05,2.05,0,0,0-2.05-2H137.67A2,2,0,0,0,135.63,62.47Z" transform="translate(-23.13 -26.5)"/><rect x="169.55" y="64.19" width="1.26" height="43.97" rx="0.5" transform="translate(317.23 145.86) rotate(180)" style="fill:#fff"/><rect x="0.38" y="107.52" width="152" height="20.65" style="stroke:#fff;stroke-miterlimit:10;stroke-width:0.75px"/></svg>